HIERARCHY
ROOT SpineBase
{
  OFFSET 0.000000 0.000000 0.000000
  CHANNELS 6 Xposition Yposition Zposition Zrotation Xrotation Yrotation
  JOINT SpineMid
  {
    OFFSET -0.000000 29.874596 0.000000
    CHANNELS 3 Zrotation Xrotation Yrotation
    JOINT SpineShoulder
    {
      OFFSET 0.300311 22.402678 -1.369618
      CHANNELS 3 Zrotation Xrotation Yrotation
      JOINT Neck
      {
        OFFSET 0.215891 7.497380 -0.936508
        CHANNELS 3 Zrotation Xrotation Yrotation
        JOINT Head
        {
          OFFSET 0.138522 11.307363 5.241760
          CHANNELS 3 Zrotation Xrotation Yrotation
          End Site
          {
            OFFSET 0 0 0
          }
        }
      }
      JOINT ShoulderLeft
      {
        OFFSET -3.927393 -6.114429 -12.259279
        CHANNELS 3 Zrotation Xrotation Yrotation
        JOINT ElbowLeft
        {
          OFFSET -7.385482 -23.129327 -10.306462
          CHANNELS 3 Zrotation Xrotation Yrotation
          JOINT WristLeft
          {
            OFFSET -1.241377 -21.030978 -7.473977
            CHANNELS 3 Zrotation Xrotation Yrotation
            JOINT HandLeft
            {
              OFFSET -1.611607 -3.890189 0.910685
              CHANNELS 3 Zrotation Xrotation Yrotation
              JOINT HandTipLeft
              {
                OFFSET -1.270085 -4.630252 -0.488085
                CHANNELS 3 Zrotation Xrotation Yrotation
                End Site
                {
                  OFFSET 0 0 0
                }
              }
              JOINT ThumbLeft
              {
                OFFSET 1.914888 -0.211423 -0.004637
                CHANNELS 3 Zrotation Xrotation Yrotation
                End Site
                {
                  OFFSET 0 0 0
                }
              }
            }
          }
        }
      }
      JOINT ShoulderRight
      {
        OFFSET 8.397854 -10.226992 15.152724
        CHANNELS 3 Zrotation Xrotation Yrotation
        JOINT ElbowRight
        {
          OFFSET -8.485166 -17.420792 -19.805115
          CHANNELS 3 Zrotation Xrotation Yrotation
          JOINT WristRight
          {
            OFFSET -8.667750 -20.384221 -18.084354
            CHANNELS 3 Zrotation Xrotation Yrotation
            JOINT HandRight
            {
              OFFSET -1.623582 -4.986942 -4.821975
              CHANNELS 3 Zrotation Xrotation Yrotation
              JOINT HandTipRight
              {
                OFFSET -1.110696 -2.126487 -1.419072
                CHANNELS 3 Zrotation Xrotation Yrotation
                End Site
                {
                  OFFSET 0 0 0
                }
              }
              JOINT ThumbRight
              {
                OFFSET 0.824467 -0.057937 -1.582959
                CHANNELS 3 Zrotation Xrotation Yrotation
                End Site
                {
                  OFFSET 0 0 0
                }
              }
            }
          }
        }
      }
    }
  }
  JOINT HipLeft
  {
    OFFSET -2.235888 1.083520 -7.692336
    CHANNELS 3 Zrotation Xrotation Yrotation
    JOINT KneeLeft
    {
      OFFSET -9.777940 -25.327966 -2.323033
      CHANNELS 3 Zrotation Xrotation Yrotation
      JOINT AnkleLeft
      {
        OFFSET -1.439986 -23.654911 10.723469
        CHANNELS 3 Zrotation Xrotation Yrotation
        JOINT FootLeft
        {
          OFFSET 7.739278 -2.352572 -4.100367
          CHANNELS 3 Zrotation Xrotation Yrotation
          End Site
          {
            OFFSET 0 0 0
          }
        }
      }
    }
  }
  JOINT HipRight
  {
    OFFSET 3.345298 0.234131 1.048442
    CHANNELS 3 Zrotation Xrotation Yrotation
    JOINT KneeRight
    {
      OFFSET 1.335881 -24.129159 6.903771
      CHANNELS 3 Zrotation Xrotation Yrotation
      JOINT AnkleRight
      {
        OFFSET -11.824819 -19.338757 2.214463
        CHANNELS 3 Zrotation Xrotation Yrotation
        JOINT FootRight
        {
          OFFSET 0.488674 -8.380698 -3.710146
          CHANNELS 3 Zrotation Xrotation Yrotation
          End Site
          {
            OFFSET 0 0 0
          }
        }
      }
    }
  }
}
MOTION
Frames: 14
Frame Time: 0.033333
-54.715291 58.147556 341.127716 3.055016 -1.199936 -32.833211 0.451567 1.145634 33.085640 -0.804562 0.792329 0.123833 -3.369928 0.589064 -0.357195 0.000000 0.000000 0.000000 15.069573 -9.855987 -4.352534 -1.393446 -7.797429 1.915537 3.152677 3.013939 15.110345 -0.318345 -10.697357 -4.259879 0.000000 0.000000 0.000000 0.000000 0.000000 0.000000 7.416408 -6.187461 -10.152152 -2.567711 -18.021387 19.233205 28.451024 -64.747832 43.319473 61.600512 59.457608 -88.798365 0.000000 0.000000 0.000000 0.000000 0.000000 0.000000 0.953066 -0.336531 33.324820 -13.694183 5.211058 -4.522097 -21.581789 -19.343275 -25.040472 0.000000 0.000000 0.000000 5.332288 -7.699292 33.820769 -2.582621 7.948848 1.526178 19.064013 7.159857 -11.460364 0.000000 0.000000 0.000000
-54.726443 57.005493 341.105176 2.533368 -1.794189 -30.603260 0.169126 1.185856 30.821036 -0.570136 0.743373 0.116625 -3.065560 1.267108 -0.180645 0.000000 0.000000 0.000000 18.652051 -11.815423 -4.438286 -2.611160 -9.362071 2.842592 10.334201 -0.054061 20.433960 -3.856848 -6.491769 -8.725302 0.000000 0.000000 0.000000 0.000000 0.000000 0.000000 8.600256 -6.383830 -10.653191 -2.592676 -18.556502 20.373271 27.470261 -64.099175 48.775162 72.456163 60.950417 -95.619527 0.000000 0.000000 0.000000 0.000000 0.000000 0.000000 2.368054 -1.131073 31.881067 -14.196532 8.400492 -4.910218 -21.191541 -20.381328 -24.103059 0.000000 0.000000 0.000000 7.702252 -6.245505 32.268367 -1.740470 6.672784 2.137093 29.173195 14.070815 -21.347389 0.000000 0.000000 0.000000
-54.608654 55.414649 341.168127 1.990040 -2.442525 -32.155100 -0.250699 1.334463 32.335771 -0.588813 0.704939 0.077231 -1.535671 2.311005 -0.435294 0.000000 0.000000 0.000000 22.172482 -13.417396 -4.481866 -2.548233 -10.958451 3.440062 9.586559 -1.717348 24.229447 0.479512 -4.853573 -12.528916 0.000000 0.000000 0.000000 0.000000 0.000000 0.000000 9.653293 -6.628472 -10.603334 -2.605436 -18.490084 20.618528 27.330159 -63.883704 50.197185 70.107254 69.127522 -85.073644 0.000000 0.000000 0.000000 0.000000 0.000000 0.000000 3.733893 -2.236293 34.417386 -14.314288 12.044867 -5.407789 -20.351795 -21.440920 -21.263736 0.000000 0.000000 0.000000 10.528388 -4.288855 34.371260 0.087282 5.991194 2.436908 33.174294 18.430242 -28.536372 0.000000 0.000000 0.000000
-53.797371 54.038872 341.590553 1.989584 -3.342056 -33.602394 -0.761476 1.510949 33.791585 -0.525676 0.791548 0.072794 0.212792 3.462338 -1.176114 0.000000 0.000000 0.000000 24.684779 -15.072936 -4.346821 -3.093679 -12.130411 4.115591 8.453470 -4.318481 27.762551 5.786703 -0.864274 -18.213925 0.000000 0.000000 0.000000 0.000000 0.000000 0.000000 9.800958 -6.507067 -10.409315 -2.650754 -18.483060 20.629238 29.383719 -65.189727 45.715080 70.975252 80.070239 -82.332503 0.000000 0.000000 0.000000 0.000000 0.000000 0.000000 2.108533 -3.457774 36.521396 -11.573036 13.860798 -5.813824 -28.893282 -24.808657 -17.172185 0.000000 0.000000 0.000000 11.471015 -2.707854 35.992742 3.850426 5.811425 2.332520 33.648343 17.226902 -32.672527 0.000000 0.000000 0.000000
-52.645845 52.826484 342.280721 2.337006 -4.415589 -33.318638 -1.270137 1.599362 33.555424 -0.436870 0.929245 0.087463 1.259483 4.754399 -1.783066 0.000000 0.000000 0.000000 26.512046 -16.396779 -4.250626 -3.754996 -12.773515 4.668449 5.793991 -7.957344 31.134743 8.157500 1.224768 -20.415241 0.000000 0.000000 0.000000 0.000000 0.000000 0.000000 9.567782 -6.455575 -10.034224 -2.735183 -18.150615 20.324446 32.201278 -66.449183 47.601725 -174.677901 87.380596 170.054388 0.000000 0.000000 0.000000 0.000000 0.000000 0.000000 -1.354042 -4.028243 36.361074 -8.742707 14.279570 -6.202136 -30.771083 -26.861555 -12.238610 0.000000 0.000000 0.000000 11.740908 -1.367079 35.877553 7.568303 5.518431 2.182593 28.165571 15.693926 -32.761775 0.000000 0.000000 0.000000
-51.508986 51.714933 343.106176 2.576737 -5.397473 -29.710992 -1.356111 1.922918 29.997498 -0.269976 1.050596 0.120498 0.529634 5.597899 -1.670459 0.000000 0.000000 0.000000 27.416560 -16.946543 -4.452911 -4.573327 -12.907191 5.198245 1.401479 -13.965172 34.411137 15.829739 3.743547 -25.424814 0.000000 0.000000 0.000000 0.000000 0.000000 0.000000 8.704290 -6.313079 -9.333180 -2.788075 -17.750850 19.650960 32.933586 -67.181667 45.986560 -166.413690 85.370933 160.663939 0.000000 0.000000 0.000000 0.000000 0.000000 0.000000 -5.665739 -3.317352 32.429422 -6.331233 13.391027 -6.399489 -26.104786 -26.761625 -6.667097 0.000000 0.000000 0.000000 12.818826 -0.599583 32.616036 10.164491 5.951874 1.406144 19.206905 17.493070 -30.321609 0.000000 0.000000 0.000000
-50.367298 51.239992 343.830504 2.734120 -6.109069 -24.507299 -1.314765 2.118679 24.831370 -0.189618 1.246554 0.131401 0.271278 6.069896 -1.645135 0.000000 0.000000 0.000000 28.167747 -16.635515 -5.067226 -5.711740 -12.486930 5.829448 -1.093325 -21.425121 37.527788 20.141944 8.202294 -29.037663 0.000000 0.000000 0.000000 0.000000 0.000000 0.000000 8.193611 -5.617659 -9.124467 -2.722774 -18.259162 19.729126 33.027382 -67.839308 44.143555 34.405061 84.646579 -42.616424 0.000000 0.000000 0.000000 0.000000 0.000000 0.000000 -8.639181 -1.260091 26.836826 -5.622740 12.062001 -6.422474 -19.459667 -25.273800 -2.017536 0.000000 0.000000 0.000000 14.261438 -0.628769 27.831893 11.153536 6.863893 0.212445 9.067681 14.424811 -25.066537 0.000000 0.000000 0.000000
-49.149052 51.390682 344.417881 3.152728 -6.490511 -16.428711 -0.853392 2.361696 16.800893 0.085503 1.408234 0.180755 -2.156450 5.494936 -0.890130 0.000000 0.000000 0.000000 27.113759 -16.418321 -5.251226 -5.607561 -12.188997 5.647773 -7.537693 -22.924554 35.919662 24.230718 8.549983 -28.388189 0.000000 0.000000 0.000000 0.000000 0.000000 0.000000 7.834945 -5.241607 -10.030235 -3.152752 -18.482571 20.685546 29.464634 -66.248591 45.910255 49.814326 78.958124 -58.589838 0.000000 0.000000 0.000000 0.000000 0.000000 0.000000 -11.741328 1.948768 18.402165 -4.770188 10.186284 -6.357798 -10.623774 -22.233515 0.831256 0.000000 0.000000 0.000000 15.106894 -1.876268 20.319984 12.436374 7.259071 -0.722518 2.537728 8.899058 -22.113315 0.000000 0.000000 0.000000
-48.302336 52.096079 344.737934 3.216547 -6.504956 -0.205218 -0.537180 2.410377 0.580049 0.107541 1.616728 0.156768 -3.143883 3.945454 -0.177428 0.000000 0.000000 0.000000 25.612383 -16.122612 -4.634820 -4.448542 -11.513578 4.429823 -9.615609 -18.081525 32.279744 21.346592 5.777898 -23.271385 0.000000 0.000000 0.000000 0.000000 0.000000 0.000000 8.711501 -5.496260 -10.664957 -3.102970 -18.523890 21.194197 27.362176 -64.822609 46.003999 45.804598 67.251495 -59.262917 0.000000 0.000000 0.000000 0.000000 0.000000 0.000000 -11.157510 7.542982 1.784889 -5.897086 8.585528 -6.328102 0.951821 -17.911945 1.090180 0.000000 0.000000 0.000000 15.660991 -6.364244 5.096817 12.872892 8.002545 -1.702434 -4.886516 5.609746 -18.657155 0.000000 0.000000 0.000000
-48.465260 52.761238 344.030050 2.142826 -5.444425 22.255800 0.145712 2.544690 -22.042191 0.208751 1.497672 0.087426 -2.842594 1.095549 0.440364 0.000000 0.000000 0.000000 25.002054 -16.292804 -3.591941 -4.681790 -10.185923 3.661786 -5.607739 -4.468981 24.328483 10.722832 -0.270405 -13.613218 0.000000 0.000000 0.000000 0.000000 0.000000 0.000000 10.610807 -6.854376 -10.875668 -2.699547 -18.200147 21.132189 24.985137 -62.704927 44.607537 45.390786 60.096103 -63.127742 0.000000 0.000000 0.000000 0.000000 0.000000 0.000000 -4.382551 9.743921 -21.798608 -9.583228 7.811412 -6.577852 5.673520 -16.562841 -1.130996 0.000000 0.000000 0.000000 15.247938 -16.989068 -15.259794 10.787235 11.060385 -3.717779 -5.280360 1.861694 -18.432634 0.000000 0.000000 0.000000
-47.767246 53.201049 344.111236 1.583205 -5.135667 39.672357 0.922863 2.042842 -39.520964 -0.396054 1.721737 0.010828 -2.273582 0.112998 0.716020 0.000000 0.000000 0.000000 23.853165 -15.336704 -3.231773 -5.257576 -9.264715 3.401270 2.443380 8.017664 15.901638 -1.578793 -8.836563 -5.531457 0.000000 0.000000 0.000000 0.000000 0.000000 0.000000 12.029972 -7.722955 -10.984668 -2.247249 -18.410115 21.486941 20.352603 -59.563490 38.294683 48.781343 52.476103 -74.478403 0.000000 0.000000 0.000000 0.000000 0.000000 0.000000 0.655816 10.846038 -40.444321 -11.555143 6.414593 -6.800326 5.077533 -17.812965 -0.444192 0.000000 0.000000 0.000000 8.855678 -21.456359 -33.479563 13.169908 11.758887 -4.459826 -0.999411 4.818002 -21.615911 0.000000 0.000000 0.000000
-46.731599 53.704292 344.610626 1.101982 -5.216521 43.490974 0.803162 1.973056 -43.375301 -0.564134 1.743250 -0.030724 -1.667536 0.113796 0.917358 0.000000 0.000000 0.000000 24.382135 -15.466818 -2.897705 -8.609782 -6.767425 4.066889 7.345463 15.861654 8.215401 -5.955859 -18.145898 0.021842 0.000000 0.000000 0.000000 0.000000 0.000000 0.000000 13.128191 -8.502527 -10.714737 -0.588098 -18.081367 20.125163 15.378507 -53.172962 26.920685 39.512814 50.805196 -66.318310 0.000000 0.000000 0.000000 0.000000 0.000000 0.000000 2.774139 10.445078 -44.800285 -13.644326 6.423190 -7.256101 -1.423586 -22.622376 0.198459 0.000000 0.000000 0.000000 8.604884 -22.344169 -37.203775 12.097513 11.802685 -4.818600 -1.712327 4.417048 -20.558453 0.000000 0.000000 0.000000
-45.460194 54.403082 345.502381 0.223059 -5.474216 42.908209 0.619276 1.808528 -42.857582 -0.593850 1.700585 -0.064644 0.963748 0.156309 0.178067 0.000000 0.000000 0.000000 22.864402 -14.138711 -2.543334 -8.717245 -5.904427 3.605312 9.294236 19.562514 4.012346 -6.064033 -22.763984 2.688278 0.000000 0.000000 0.000000 0.000000 0.000000 0.000000 13.718833 -7.517031 -10.592108 0.636823 -17.218083 17.787296 11.370638 -44.562031 15.062453 25.335027 43.215812 -48.588153 0.000000 0.000000 0.000000 0.000000 0.000000 0.000000 4.919320 10.007258 -44.895774 -16.108321 6.356589 -7.715506 -11.239244 -29.446043 0.981919 0.000000 0.000000 0.000000 10.642624 -21.247189 -36.486401 11.232349 10.428272 -4.280455 -6.756642 5.779140 -17.419568 0.000000 0.000000 0.000000
-43.668182 55.070904 346.946209 -0.227503 -6.448007 43.966580 0.551803 1.601534 -43.935608 -0.629841 1.635818 -0.060520 3.526744 1.237925 -0.909701 0.000000 0.000000 0.000000 19.778174 -12.701100 -1.707869 -9.598705 -4.688073 3.212131 10.742479 22.286236 -0.280078 -4.646371 -25.494683 4.873214 0.000000 0.000000 0.000000 0.000000 0.000000 0.000000 12.270237 -5.884161 -8.622008 2.236285 -16.604374 14.009615 9.273612 -28.656569 -4.273275 10.780502 28.399110 -21.837355 0.000000 0.000000 0.000000 0.000000 0.000000 0.000000 6.562873 12.304452 -46.696673 -16.049923 5.401033 -8.104523 -25.388142 -37.732282 0.003600 0.000000 0.000000 0.000000 12.317022 -18.306662 -37.883873 11.347447 8.440854 -3.841221 -0.606155 2.955417 -19.375616 0.000000 0.000000 0.000000
